<svg xmlns="http://www.w3.org/2000/svg" width="100" height="100" viewBox="0 0 100 100" fill="none">
  <rect x="0.5" y="0.5" width="99" height="99" rx="19.5" fill="black"/>
  <rect x="0.5" y="0.5" width="99" height="99" rx="19.5" stroke="#EEEEEE"/>
  <path d="M65.4362 23.7471C64.8232 25.212 64.1556 26.9263 63.5275 28.7873C61.6179 34.4461 60.0263 41.5735 61.5173 47.1383C63.0084 52.703 67.9505 58.0797 72.4337 62.0255C73.9078 63.3229 75.3428 64.4737 76.6059 65.4357C75.1412 64.8228 73.4271 64.1554 71.5665 63.5275C65.9077 61.6179 58.7803 60.0263 53.2156 61.5173C47.6508 63.0084 42.2741 67.9505 38.3283 72.4337C37.0309 73.9078 35.8801 75.3428 34.9181 76.6059C35.531 75.1412 36.1984 73.4271 36.8263 71.5665C38.736 65.9077 40.3276 58.7803 38.8365 53.2156C37.3454 47.6508 32.4034 42.2741 27.9202 38.3283C26.4457 37.0306 25.0104 35.8798 23.7471 34.9176C25.212 35.5307 26.9263 36.1983 28.7873 36.8263C34.4461 38.736 41.5735 40.3276 47.1383 38.8365C52.703 37.3454 58.0797 32.4034 62.0255 27.9202C63.3232 26.4457 64.4741 25.0104 65.4362 23.7471Z" stroke="#FEFFFE"/>
  <path d="M51 19.4814C51.2016 21.0566 51.4806 22.8751 51.8672 24.8008C53.0428 30.6562 55.2281 37.6246 59.3018 41.6982C63.3754 45.7719 70.3438 47.9572 76.1992 49.1328C78.1246 49.5193 79.9427 49.7985 81.5176 50C79.9427 50.2015 78.1246 50.4807 76.1992 50.8672C70.3438 52.0428 63.3754 54.2281 59.3018 58.3018C55.2281 62.3754 53.0428 69.3438 51.8672 75.1992C51.4807 77.1246 51.2015 78.9427 51 80.5176C50.7985 78.9427 50.5193 77.1246 50.1328 75.1992C48.9572 69.3438 46.7719 62.3754 42.6982 58.3018C38.6246 54.2281 31.6562 52.0428 25.8008 50.8672C23.8751 50.4806 22.0566 50.2016 20.4814 50C22.0566 49.7984 23.8751 49.5194 25.8008 49.1328C31.6562 47.9572 38.6246 45.7719 42.6982 41.6982C46.7719 37.6246 48.9572 30.6562 50.1328 24.8008C50.5194 22.8751 50.7984 21.0566 51 19.4814Z" stroke="#FC4A3A"/>
</svg>