<svg width="67" height="32" viewBox="0 0 67 32" fill="none" xmlns="http://www.w3.org/2000/svg">
<rect x="0.5" y="0.5" width="66" height="31" rx="15.5" stroke="#FC4A3A"/>
<path d="M15 22V16.9504C15 16.4389 15.196 15.9468 15.5477 15.5754L22.2672 8.47816C23.0361 7.66604 24.3215 7.64223 25.1199 8.42532L32.4004 15.5658C32.7839 15.9419 33 16.4565 33 16.9937V22C33 23.1046 32.1046 24 31 24H17C15.8954 24 15 23.1046 15 22Z" stroke="#FC4A3A"/>
<path d="M21.1539 20.6923H26.9231" stroke="#FC4A3A" stroke-linecap="round"/>
<path d="M49.1035 21.3672H41.8496V18.332H49.1035V21.3672ZM42.9512 20.5117H48.0254V19.1875H42.9512V20.5117ZM49.7363 12.6836H41.1934V11.8281H44.9316V10.8555H46.0449V11.8281H49.7363V12.6836ZM45.4824 13.0586C46.5996 13.0586 47.4531 13.1855 48.043 13.4395C48.6328 13.6895 48.9277 14.0586 48.9277 14.5469C48.9277 14.9922 48.6816 15.3398 48.1895 15.5898C47.6973 15.8359 46.9824 15.9805 46.0449 16.0234V16.7383H50.2754V17.6172H40.7012V16.7383H44.9316V16.0234C43.9941 15.9805 43.2754 15.8359 42.7754 15.5898C42.2793 15.3398 42.0332 14.9922 42.0371 14.5469C42.0332 14.0586 42.3281 13.6895 42.9219 13.4395C43.5156 13.1855 44.3691 13.0586 45.4824 13.0586ZM45.4824 13.8203C43.9746 13.832 43.2207 14.0742 43.2207 14.5469C43.2207 14.7812 43.4141 14.9609 43.8008 15.0859C44.1914 15.2109 44.752 15.2734 45.4824 15.2734C46.2168 15.2734 46.7773 15.2109 47.1641 15.0859C47.5508 14.9609 47.7441 14.7812 47.7441 14.5469C47.7441 14.0742 46.9902 13.832 45.4824 13.8203Z" fill="#FC4A3A"/>
</svg>
