<svg width="77" height="32" viewBox="0 0 77 32" fill="none" xmlns="http://www.w3.org/2000/svg">
<rect x="0.5" y="0.5" width="76" height="31" rx="15.5" stroke="#FC4A3A"/>
<circle cx="23.8333" cy="11" r="3.33333" stroke="#FC4A3A" stroke-width="1.33333"/>
<path d="M17.1667 23C17.5428 21.2222 19.536 17.6667 24.5001 17.6667" stroke="#FC4A3A" stroke-width="1.33333" stroke-linecap="round"/>
<path d="M31.8335 23.0001C31.4574 21.2223 29.4643 17.6667 24.5002 17.6667" stroke="#FC4A3A" stroke-width="1.33333" stroke-linecap="round"/>
<path d="M45.8842 18.8594H40.9741V12.0391H45.8842V18.8594ZM42.0639 17.957H44.7827V12.918H42.0639V17.957ZM48.7553 15.1094H50.4428V16.0469H48.7553V21.4961H47.642V10.9961H48.7553V15.1094ZM59.522 21.5195H58.4088V10.9961H59.522V21.5195ZM53.9088 11.7812C54.4283 11.7812 54.8931 11.9336 55.3033 12.2383C55.7134 12.5391 56.0338 12.9688 56.2642 13.5273C56.4986 14.082 56.6158 14.7266 56.6158 15.4609C56.6158 16.1992 56.4986 16.8477 56.2642 17.4062C56.0338 17.9648 55.7134 18.3965 55.3033 18.7012C54.8931 19.002 54.4283 19.1523 53.9088 19.1523C53.3814 19.1523 52.9127 19.002 52.5025 18.7012C52.0923 18.3965 51.7701 17.9668 51.5357 17.4121C51.3052 16.8535 51.19 16.2031 51.19 15.4609C51.19 14.7227 51.3052 14.0762 51.5357 13.5215C51.7701 12.9629 52.0923 12.5332 52.5025 12.2324C52.9127 11.9316 53.3814 11.7812 53.9088 11.7812ZM53.9088 12.7773C53.5845 12.7773 53.2974 12.8867 53.0474 13.1055C52.8013 13.3242 52.6099 13.6367 52.4732 14.043C52.3365 14.4453 52.2681 14.918 52.2681 15.4609C52.2681 16.0078 52.3365 16.4844 52.4732 16.8906C52.6099 17.2969 52.8013 17.6094 53.0474 17.8281C53.2974 18.0469 53.5845 18.1562 53.9088 18.1562C54.2291 18.1562 54.5123 18.0469 54.7584 17.8281C55.0045 17.6094 55.1959 17.2969 55.3326 16.8906C55.4693 16.4844 55.5377 16.0078 55.5377 15.4609C55.5377 14.918 55.4693 14.4453 55.3326 14.043C55.1959 13.6367 55.0045 13.3242 54.7584 13.1055C54.5123 12.8867 54.2291 12.7773 53.9088 12.7773Z" fill="#FC4A3A"/>
</svg>
