<svg width="77" height="32" viewBox="0 0 77 32" fill="none" xmlns="http://www.w3.org/2000/svg">
<rect x="0.5" y="0.5" width="76" height="31" rx="15.5" stroke="#FC4A3A"/>
<path d="M15.665 21.773V11.8776C15.665 11.4838 15.8581 11.1152 16.1818 10.8909L18.9786 8.95324C19.7746 8.40173 20.8624 8.97145 20.8624 9.93987V20.1583C20.8624 20.5871 20.6337 20.9833 20.2623 21.1977L17.4655 22.8125C16.6653 23.2745 15.665 22.697 15.665 21.773Z" stroke="#FC4A3A" stroke-width="1.20029" stroke-linecap="round"/>
<path d="M26.4677 21.773V11.8776C26.4677 11.4838 26.6607 11.1152 26.9844 10.8909L29.7812 8.95324C30.5772 8.40173 31.6651 8.97145 31.6651 9.93987V20.1583C31.6651 20.5871 31.4363 20.9833 31.0649 21.1977L28.2681 22.8125C27.4679 23.2745 26.4677 22.697 26.4677 21.773Z" stroke="#FC4A3A" stroke-width="1.20029" stroke-linecap="round"/>
<path d="M26.2638 21.773V11.8776C26.2638 11.4838 26.0707 11.1152 25.7471 10.8909L22.9502 8.95324C22.1542 8.40173 21.0664 8.97145 21.0664 9.93987V20.1583C21.0664 20.5871 21.2952 20.9833 21.6665 21.1977L24.4634 22.8125C25.2636 23.2745 26.2638 22.697 26.2638 21.773Z" stroke="#FC4A3A" stroke-width="1.20029" stroke-linecap="round"/>
<path d="M44.4428 14.0898C44.4428 14.6719 44.56 15.248 44.7944 15.8184C45.0327 16.3887 45.3608 16.8984 45.7788 17.3477C46.2006 17.793 46.6772 18.1289 47.2084 18.3555L46.5991 19.2227C45.9858 18.9531 45.4428 18.5469 44.9702 18.0039C44.4975 17.457 44.1381 16.8301 43.892 16.123C43.6459 16.877 43.2846 17.5527 42.808 18.1504C42.3354 18.748 41.7983 19.1953 41.1967 19.4922L40.5522 18.6133C41.0678 18.3711 41.5366 18.0098 41.9584 17.5293C42.3803 17.0449 42.7104 16.5 42.9487 15.8945C43.1909 15.2852 43.3139 14.6836 43.3178 14.0898V12.9766H40.9155V12.0508H46.8334V12.9766H44.4428V14.0898ZM49.2709 21.4961H48.1577V10.9961H49.2709V21.4961ZM59.3345 16.7266H56.1588V19.293H60.4361V20.207H50.8267V19.293H55.0572V16.7266H52.022V11.8047H59.2408V12.707H53.1353V15.8359H59.3345V16.7266Z" fill="#FC4A3A"/>
</svg>
