<svg width="24" height="24" viewBox="0 0 24 24" fill="none" xmlns="http://www.w3.org/2000/svg">
<path d="M3.66504 17.773V7.87757C3.66504 7.48385 3.85813 7.11516 4.18177 6.89094L6.9786 4.95324C7.77463 4.40173 8.86244 4.97145 8.86244 5.93987V16.1583C8.86244 16.5871 8.63367 16.9833 8.2623 17.1977L5.46547 18.8125C4.66528 19.2745 3.66504 18.697 3.66504 17.773Z" stroke="#9E9E9E" stroke-width="1.20029" stroke-linecap="round"/>
<path d="M14.4675 17.773V7.87757C14.4675 7.48385 14.6606 7.11516 14.9843 6.89094L17.7811 4.95324C18.5771 4.40173 19.6649 4.97145 19.6649 5.93987V16.1583C19.6649 16.5871 19.4362 16.9833 19.0648 17.1977L16.268 18.8125C15.4678 19.2745 14.4675 18.697 14.4675 17.773Z" stroke="#9E9E9E" stroke-width="1.20029" stroke-linecap="round"/>
<path d="M14.2637 17.773V7.87757C14.2637 7.48385 14.0706 7.11516 13.7469 6.89094L10.9501 4.95324C10.1541 4.40173 9.06627 4.97145 9.06627 5.93987V16.1583C9.06627 16.5871 9.29504 16.9833 9.66641 17.1977L12.4632 18.8125C13.2634 19.2745 14.2637 18.697 14.2637 17.773Z" stroke="#9E9E9E" stroke-width="1.20029" stroke-linecap="round"/>
</svg>
