<svg width="77" height="32" viewBox="0 0 77 32" fill="none" xmlns="http://www.w3.org/2000/svg">
<rect x="0.5" y="0.5" width="76" height="31" rx="15.5" stroke="#FC4A3A"/>
<path d="M18 6H23.8095H29C29.5523 6 30 6.44772 30 7V24.2435C30 25.0187 29.1561 25.4991 28.4895 25.1034L24.2965 22.6143C23.9944 22.435 23.6203 22.4274 23.3111 22.5942L18.4749 25.2041C17.8087 25.5636 17 25.0811 17 24.324V7C17 6.44772 17.4477 6 18 6Z" stroke="#FC4A3A" stroke-linecap="round"/>
<path d="M49.3413 21.5195H48.228V15.6836H46.06V14.7695H48.228V10.9961H49.3413V21.5195ZM44.3256 13.9492C44.3256 14.5391 44.4409 15.1289 44.6713 15.7188C44.9018 16.3086 45.2241 16.8379 45.6381 17.3066C46.0561 17.7715 46.5288 18.1211 47.0561 18.3555L46.3881 19.2461C45.7905 18.957 45.2631 18.5273 44.8061 17.957C44.353 17.3828 44.0092 16.7324 43.7748 16.0059C43.5366 16.7793 43.187 17.4727 42.726 18.0859C42.2651 18.6953 41.7358 19.1523 41.1381 19.457L40.4584 18.5898C40.9819 18.3398 41.4506 17.9707 41.8647 17.4824C42.2827 16.9902 42.6088 16.4355 42.8432 15.8184C43.0776 15.1973 43.1967 14.5742 43.2006 13.9492V12.9648H40.8803V12.0508H46.6577V12.9648H44.3256V13.9492ZM54.4947 12.9297C54.4947 13.375 54.5943 13.8008 54.7935 14.207C54.9927 14.6094 55.2818 14.9668 55.6607 15.2793C56.0396 15.5879 56.4908 15.8242 57.0142 15.9883L56.4869 16.8555C55.897 16.668 55.3853 16.3867 54.9517 16.0117C54.522 15.6367 54.19 15.1953 53.9556 14.6875C53.7252 15.2695 53.3834 15.7773 52.9302 16.2109C52.4771 16.6406 51.94 16.9648 51.3189 17.1836L50.7447 16.293C51.2798 16.1172 51.7447 15.8594 52.1392 15.5195C52.5377 15.1758 52.8423 14.7812 53.0533 14.3359C53.2681 13.8906 53.3775 13.4258 53.3814 12.9414V12.6484H51.0728V11.7461H56.7564V12.6484H54.4947V12.9297ZM59.0767 13.5977H60.6002V14.5117H59.0767V17.3008H57.9634V10.9961H59.0767V13.5977ZM55.69 17.5586C56.4088 17.5586 57.0298 17.6367 57.5533 17.793C58.0767 17.9453 58.4771 18.168 58.7545 18.4609C59.0318 18.75 59.1705 19.0977 59.1705 19.5039C59.1705 19.9141 59.0298 20.2676 58.7486 20.5645C58.4713 20.8613 58.0709 21.0879 57.5474 21.2441C57.0279 21.4004 56.4088 21.4766 55.69 21.4727C54.9634 21.4766 54.3345 21.4004 53.8033 21.2441C53.2759 21.0879 52.8697 20.8613 52.5845 20.5645C52.3033 20.2676 52.1627 19.9141 52.1627 19.5039C52.1627 19.0977 52.3033 18.75 52.5845 18.4609C52.8697 18.168 53.2759 17.9453 53.8033 17.793C54.3345 17.6367 54.9634 17.5586 55.69 17.5586ZM55.69 18.4375C54.9244 18.4375 54.3287 18.5312 53.9029 18.7188C53.481 18.9023 53.272 19.1641 53.2759 19.5039C53.272 19.8516 53.481 20.1211 53.9029 20.3125C54.3287 20.5 54.9244 20.5938 55.69 20.5938C56.4478 20.5938 57.0357 20.5 57.4537 20.3125C57.8716 20.125 58.0806 19.8555 58.0806 19.5039C58.0806 19.1641 57.8716 18.9023 57.4537 18.7188C57.0357 18.5312 56.4478 18.4375 55.69 18.4375Z" fill="#FC4A3A"/>
</svg>
