<svg width="24" height="24" viewBox="0 0 24 24" fill="none" xmlns="http://www.w3.org/2000/svg">
<g clip-path="url(#clip0_350_1080)">
<path d="M11.4297 3.69824C11.6093 3.14545 12.3907 3.14546 12.5703 3.69824L13.8545 7.64844C14.0956 8.38981 14.7868 8.8916 15.5664 8.8916H19.7197C20.3008 8.89183 20.5424 9.63595 20.0723 9.97754L16.7119 12.4189C16.0813 12.8772 15.8169 13.6892 16.0576 14.4307L17.3418 18.3809C17.5214 18.9336 16.8882 19.3934 16.418 19.0518L13.0576 16.6104C12.4269 16.1524 11.5731 16.1524 10.9424 16.6104L7.58203 19.0518C7.1118 19.3934 6.47859 18.9336 6.6582 18.3809L7.94238 14.4307C8.18309 13.6892 7.9187 12.8772 7.28809 12.4189L3.92773 9.97754C3.45758 9.63595 3.69923 8.89183 4.28027 8.8916H8.43359C9.21323 8.8916 9.90439 8.38981 10.1455 7.64844L11.4297 3.69824Z" stroke="#EAB308" stroke-width="1.2"/>
</g>
<defs>
<clipPath id="clip0_350_1080">
<rect width="24" height="24" fill="white"/>
</clipPath>
</defs>
</svg>
