<svg width="34" height="32" viewBox="0 0 34 32" fill="none" xmlns="http://www.w3.org/2000/svg">
<path d="M15.9599 1.01489C16.1395 0.462106 16.9209 0.462106 17.1005 1.01489L20.1806 10.4924C20.4216 11.2341 21.1127 11.7366 21.8925 11.7366H31.8583C32.4394 11.7368 32.6809 12.4799 32.2109 12.8215L24.1484 18.6799C23.5177 19.1382 23.2533 19.9502 23.4941 20.6917L26.5742 30.1702C26.7535 30.7228 26.1205 31.1827 25.6503 30.8411L17.5878 24.9827C16.9571 24.5247 16.1033 24.5247 15.4726 24.9827L7.4101 30.8411C6.93994 31.1827 6.30692 30.7228 6.48627 30.1702L9.56635 20.6917C9.8071 19.9502 9.5427 19.1382 8.91205 18.6799L0.849548 12.8215C0.379571 12.4799 0.621068 11.7368 1.20209 11.7366H11.1679C11.9477 11.7366 12.6388 11.2341 12.8798 10.4924L15.9599 1.01489Z" stroke="#616161" stroke-width="1.2"/>
</svg>
