<svg xmlns="http://www.w3.org/2000/svg" width="68" height="18" viewBox="0 0 68 18" fill="none">
  <path d="M61.4657 3.38141C61.7703 3.64122 62.1196 3.87047 62.4911 3.97001C62.8623 4.06948 63.2791 4.04603 63.6726 3.97347C63.413 4.27793 63.1843 4.62721 63.0848 4.99842C62.9854 5.36962 63.0088 5.78647 63.0814 6.17992C62.7769 5.92036 62.4276 5.69163 62.0564 5.59217C61.6849 5.49263 61.2678 5.5165 60.8741 5.58919C61.1339 5.28457 61.3631 4.93525 61.4627 4.56376C61.5622 4.19227 61.5384 3.77513 61.4657 3.38141Z" stroke="#FC4A3A" stroke-width="0.7"/>
  <path d="M61.0881 7.32804C61.1415 7.28537 61.2481 7.26404 61.4081 7.26404C61.6428 7.26404 61.8028 7.3707 61.8881 7.58404C61.9841 7.79737 62.0161 8.12804 61.9841 8.57604C61.9201 9.46137 61.9308 10.4 62.0161 11.392C62.0908 12.288 62.1121 12.864 62.0801 13.12C62.0481 13.3867 61.9521 13.5467 61.7921 13.6C61.5575 13.6747 61.3761 13.6427 61.2481 13.504C61.1201 13.376 61.0401 13.136 61.0081 12.784C60.9975 12.528 60.9655 12.3254 60.9121 12.176C60.8055 11.7067 60.7681 11.2907 60.8001 10.928C60.8321 10.7147 60.8481 10.1334 60.8481 9.18404C60.8695 8.43737 60.8908 7.9627 60.9121 7.76004C60.9335 7.55737 60.9921 7.41337 61.0881 7.32804Z" fill="white"/>
  <path d="M52.483 6.19197C52.611 6.14931 52.7603 6.16531 52.931 6.23997C53.1017 6.30397 53.1923 6.38397 53.203 6.47997C53.2137 6.57597 53.251 6.65597 53.315 6.71997C53.475 6.87997 53.5763 7.01864 53.619 7.13597C53.6723 7.24264 53.715 7.42397 53.747 7.67997C53.7897 8.13864 53.8483 8.39997 53.923 8.46397C53.955 8.50664 53.971 8.57597 53.971 8.67197C53.971 8.76797 54.0083 8.93331 54.083 9.16797C54.1683 9.40264 54.211 9.56264 54.211 9.64797C54.211 9.83997 54.2483 9.93597 54.323 9.93597C54.3977 9.93597 54.5203 9.85064 54.691 9.67997C54.979 9.40264 55.411 9.11997 55.987 8.83197C56.115 8.75731 56.3283 8.70931 56.627 8.68797C56.915 8.67731 57.235 8.64531 57.587 8.59197C57.9283 8.55997 58.2217 8.56531 58.467 8.60797C58.7017 8.67197 58.8723 8.70397 58.979 8.70397C59.0643 8.70397 59.203 8.74131 59.395 8.81597C59.587 8.89064 59.683 8.95464 59.683 9.00797C59.683 9.02931 59.731 9.11464 59.827 9.26397C59.9443 9.42397 59.9817 9.53597 59.939 9.59997C59.907 9.65331 59.7577 9.70664 59.491 9.75998C59.299 9.79198 59.1443 9.78664 59.027 9.74397C58.739 9.61597 58.2057 9.59464 57.427 9.67997C56.6483 9.76531 56.211 9.88797 56.115 10.048C56.0937 10.0693 56.051 10.08 55.987 10.08C55.923 10.08 55.8323 10.144 55.715 10.272C55.587 10.4106 55.4803 10.4853 55.395 10.496C55.3203 10.5173 55.219 10.608 55.091 10.768C54.963 10.9173 54.8617 11.072 54.787 11.232C54.7123 11.392 54.7017 11.4826 54.755 11.504C54.787 11.5253 54.7977 11.568 54.787 11.632C54.7763 11.696 54.739 11.744 54.675 11.776C54.5257 11.872 54.4457 12.16 54.435 12.64C54.435 12.8746 54.4137 13.0346 54.371 13.12C54.339 13.2053 54.275 13.248 54.179 13.248C54.147 13.248 54.0617 13.28 53.923 13.344C53.6777 13.4506 53.4697 13.4453 53.299 13.328C53.235 13.2746 53.1283 13.2 52.979 13.104C52.851 13.0186 52.7817 12.9333 52.771 12.848C52.771 12.7733 52.803 12.5866 52.867 12.288C53.0057 11.7866 53.091 11.2266 53.123 10.608C53.155 9.97864 53.1283 9.50397 53.043 9.18397C52.979 8.97064 52.9363 8.77864 52.915 8.60797C52.883 8.50131 52.8457 8.39464 52.803 8.28797C52.7497 8.18131 52.723 8.07997 52.723 7.98397C52.723 7.83464 52.6857 7.66931 52.611 7.48797C52.5363 7.29597 52.467 7.18931 52.403 7.16797C52.3177 7.11464 52.227 7.00797 52.131 6.84797C52.0457 6.67731 52.0243 6.54931 52.067 6.46397C52.1097 6.36797 52.2483 6.27731 52.483 6.19197Z" fill="white"/>
  <path d="M49.1304 6.39994C49.2584 6.25061 49.4504 6.26128 49.7064 6.43194C49.973 6.59194 50.1917 6.83194 50.3624 7.15194C50.4264 7.25861 50.4424 7.71194 50.4104 8.51194C50.3784 9.30128 50.325 9.88261 50.2504 10.2559C50.101 10.9813 50.133 11.4773 50.3464 11.7439C50.485 11.9039 50.565 12.0479 50.5864 12.1759C50.629 12.2933 50.6717 12.3786 50.7144 12.4319C50.789 12.5279 50.7997 12.6239 50.7464 12.7199C50.7037 12.8266 50.6237 12.8853 50.5064 12.8959C50.3997 12.9066 50.2824 12.8799 50.1544 12.8159C50.069 12.7519 49.8877 12.5813 49.6104 12.3039C49.3757 12.0693 49.2157 11.9359 49.1304 11.9039C49.045 11.8719 48.933 11.9199 48.7944 12.0479C48.6877 12.1333 48.5864 12.1919 48.4904 12.2239C48.405 12.2666 48.2504 12.3626 48.0264 12.5119C47.8024 12.6399 47.669 12.7039 47.6264 12.7039C47.5837 12.7039 47.4984 12.7359 47.3704 12.7999C47.2317 12.8746 47.0557 12.9493 46.8424 13.0239C46.629 13.0986 46.4477 13.1786 46.2984 13.2639C45.9677 13.4346 45.573 13.4719 45.1144 13.3759C44.6664 13.2906 44.3304 13.1039 44.1064 12.8159C43.7437 12.3039 43.509 11.9466 43.4024 11.7439C43.2957 11.5413 43.2317 11.3066 43.2104 11.0399C43.1677 10.6133 43.1037 10.1439 43.0184 9.63194C42.9757 9.37594 42.9437 9.16794 42.9224 9.00794C42.8904 8.66661 42.7997 8.41061 42.6504 8.23994C42.5544 8.11194 42.5384 7.95194 42.6024 7.75994C42.6664 7.55728 42.7677 7.43461 42.9064 7.39194C43.3544 7.26394 43.6157 7.35994 43.6904 7.67994C43.701 7.75461 43.7224 7.82394 43.7544 7.88794C43.8504 8.03728 43.925 8.50128 43.9784 9.27994C44.0104 9.66394 44.0477 9.96261 44.0904 10.1759C44.1117 10.4213 44.1384 10.6773 44.1704 10.9439C44.1917 11.2533 44.2504 11.4613 44.3464 11.5679C44.4317 11.6639 44.5384 11.7973 44.6664 11.9679C44.7517 12.1066 44.8264 12.1973 44.8904 12.2399C44.9544 12.2826 45.093 12.3306 45.3064 12.3839C45.477 12.4159 45.621 12.4159 45.7384 12.3839C45.8664 12.3413 45.9624 12.3199 46.0264 12.3199C46.0797 12.3199 46.149 12.2879 46.2344 12.2239C46.309 12.1706 46.3997 12.1279 46.5064 12.0959C46.613 12.0746 46.7144 12.0319 46.8104 11.9679C46.9384 11.9253 47.1357 11.8506 47.4024 11.7439C47.7544 11.6159 48.085 11.3493 48.3944 10.9439C48.4797 10.8159 48.5917 10.6826 48.7304 10.5439C48.965 10.2773 49.109 10.0319 49.1624 9.80794C49.2264 9.58394 49.253 9.22661 49.2424 8.73594C49.221 8.23461 49.1837 7.91461 49.1304 7.77594C49.0664 7.61594 49.0344 7.36528 49.0344 7.02394C49.0344 6.67194 49.0664 6.46394 49.1304 6.39994Z" fill="white"/>
  <path d="M37.7715 6.33596C37.9315 6.31463 38.2942 6.29863 38.8595 6.28796C39.2862 6.28796 39.5528 6.30396 39.6595 6.33596C39.7768 6.3573 39.9582 6.42663 40.2035 6.54396C40.5235 6.71463 40.7528 6.86396 40.8915 6.99196C41.0302 7.11996 41.0942 7.24263 41.0835 7.35996C41.0195 7.58396 40.8808 7.7173 40.6675 7.75996C40.4542 7.79196 40.2355 7.71196 40.0115 7.51996C39.8515 7.3813 39.6808 7.3013 39.4995 7.27996C39.3182 7.25863 38.9608 7.2693 38.4275 7.31196C37.7768 7.37596 37.3448 7.43463 37.1315 7.48796C36.9288 7.5413 36.6515 7.69063 36.2995 7.93596C36.1182 8.06396 35.9795 8.13863 35.8835 8.15996C35.7555 8.2133 35.6488 8.3253 35.5635 8.49596C35.4782 8.65596 35.4408 8.82663 35.4515 9.00796C35.4622 9.21063 35.4942 9.33863 35.5475 9.39196C35.6115 9.4453 35.7288 9.4613 35.8995 9.43996C36.4862 9.3653 36.9822 9.3013 37.3875 9.24796C37.7182 9.22663 37.9742 9.19463 38.1555 9.15196C38.6142 9.0773 39.0675 9.0453 39.5155 9.05596C39.9635 9.06663 40.2888 9.11996 40.4915 9.21596C40.5662 9.24796 40.6835 9.29596 40.8435 9.35996C40.9502 9.39196 41.0728 9.4933 41.2115 9.66396C41.3608 9.82396 41.4568 9.9733 41.4995 10.112C41.5528 10.2613 41.6062 10.3626 41.6595 10.416C41.7982 10.5866 41.8035 10.816 41.6755 11.104C41.6115 11.2533 41.5848 11.3973 41.5955 11.536C41.6275 11.632 41.6168 11.7066 41.5635 11.76C41.5208 11.8133 41.3875 11.9573 41.1635 12.192C40.8435 12.5013 40.6568 12.704 40.6035 12.8C40.5288 12.928 40.3795 13.0346 40.1555 13.12C39.9315 13.2053 39.7075 13.2373 39.4835 13.216C39.2488 13.1946 39.0515 13.2213 38.8915 13.296C38.6355 13.424 38.4488 13.456 38.3315 13.392C38.2675 13.3493 38.1128 13.3226 37.8675 13.312C37.2382 13.28 36.7742 13.232 36.4755 13.168C36.1768 13.104 35.8302 12.9866 35.4355 12.816C35.0622 12.6453 34.8221 12.56 34.7155 12.56C34.6088 12.56 34.5182 12.5386 34.4435 12.496C34.3688 12.4533 34.2942 12.432 34.2195 12.432C34.1022 12.4213 34.0328 12.3573 34.0115 12.24C34.0008 12.1226 34.0595 12.0373 34.1875 11.984C34.2302 11.9626 34.3528 11.9146 34.5555 11.84C34.8222 11.7226 35.1155 11.728 35.4355 11.856C35.6275 11.9413 35.7502 11.984 35.8035 11.984C35.8568 11.984 35.9475 12.016 36.0755 12.08C36.2355 12.1653 36.7848 12.208 37.7235 12.208C38.6728 12.1973 39.2755 12.1493 39.5315 12.064C39.7768 11.9786 39.9422 11.8933 40.0275 11.808C40.3155 11.5093 40.4808 11.296 40.5235 11.168C40.5768 11.04 40.5662 10.8533 40.4915 10.608C40.4168 10.352 40.2835 10.2026 40.0915 10.16C39.9102 10.1066 39.4782 10.112 38.7955 10.176C38.4968 10.1973 38.1128 10.224 37.6435 10.256C37.3235 10.288 37.1048 10.32 36.9875 10.352C36.7635 10.4266 36.3742 10.4906 35.8195 10.544C35.5742 10.5653 35.2488 10.4533 34.8435 10.208C34.4382 9.96263 34.2355 9.7493 34.2355 9.56796C34.2355 9.4933 34.2142 9.40796 34.1715 9.31196C34.1075 9.1733 34.1235 8.8373 34.2195 8.30396C34.2622 8.1013 34.3048 7.96796 34.3475 7.90396C34.3902 7.8293 34.5128 7.69596 34.7155 7.50396C35.0035 7.2373 35.1582 7.10396 35.1795 7.10396C35.2222 7.10396 35.2968 7.06663 35.4035 6.99196C35.5208 6.90663 35.6275 6.8533 35.7235 6.83196C35.8088 6.81063 35.8728 6.78396 35.9155 6.75196C35.9902 6.69863 36.2408 6.6453 36.6675 6.59196C36.8488 6.57063 37.0355 6.53863 37.2275 6.49596C37.4515 6.4213 37.6328 6.36796 37.7715 6.33596Z" fill="white"/>
  <path d="M26.5717 3.71197C26.6891 3.64797 26.7584 3.61597 26.7797 3.61597C26.8011 3.61597 26.8544 3.64797 26.9397 3.71197C27.0464 3.7973 27.1531 3.85063 27.2597 3.87197C27.3344 3.90397 27.3824 3.93063 27.4037 3.95197C27.4251 3.9733 27.4304 4.0213 27.4197 4.09597C27.4197 4.19197 27.3984 4.4213 27.3557 4.78397C27.3344 5.13597 27.3024 5.35463 27.2597 5.43997C27.2277 5.53597 27.2117 5.66397 27.2117 5.82397C27.2224 5.9733 27.2491 6.07997 27.2917 6.14397C27.3344 6.20797 27.4571 6.2453 27.6597 6.25597C27.8731 6.26663 28.0597 6.2453 28.2197 6.19197C28.3157 6.17063 28.7157 6.1493 29.4197 6.12797C29.9957 6.1173 30.3797 6.12797 30.5717 6.15997C30.7637 6.1813 30.9504 6.2773 31.1317 6.44797C31.3984 6.67197 31.3557 6.8213 31.0037 6.89597C30.8757 6.9173 30.7051 6.94397 30.4917 6.97597C30.1504 6.9973 29.8357 7.06663 29.5477 7.18397C29.3451 7.2693 29.1851 7.32263 29.0677 7.34397C28.9504 7.35463 28.6517 7.35997 28.1717 7.35997C28.1184 7.35997 28.0491 7.35997 27.9637 7.35997C27.5584 7.35997 27.3237 7.37597 27.2597 7.40797C27.1957 7.4293 27.1691 7.5413 27.1797 7.74397C27.1797 7.77597 27.1797 7.80797 27.1797 7.83997C27.1904 8.70397 27.1424 9.32797 27.0357 9.71197C26.9397 9.97863 26.9237 10.352 26.9877 10.832C27.0517 11.312 27.1584 11.6426 27.3077 11.824C27.3931 11.92 27.4571 12.0106 27.4997 12.096C27.6277 12.2773 27.9851 12.432 28.5717 12.56C29.1584 12.688 29.6064 12.7093 29.9157 12.624C30.0117 12.592 30.1611 12.5546 30.3637 12.512C30.6517 12.4373 30.9504 12.352 31.2597 12.256C31.5371 12.1813 31.9531 12.1013 32.5077 12.016C33.3184 11.8986 33.7611 11.8986 33.8357 12.016C33.9211 12.1333 33.6597 12.416 33.0517 12.864C32.8491 12.992 32.6731 13.056 32.5237 13.056C32.3851 13.056 32.2571 13.0773 32.1397 13.12C31.5637 13.3546 31.1691 13.488 30.9557 13.52C30.7531 13.552 30.2304 13.584 29.3877 13.616C28.4171 13.6373 27.6491 13.456 27.0837 13.072C26.5291 12.688 26.1077 12.0373 25.8197 11.12C25.7451 10.9066 25.7024 10.768 25.6917 10.704C25.6917 10.6293 25.7024 10.5386 25.7237 10.432C25.8837 9.88797 25.9797 9.29597 26.0117 8.65597C26.0437 8.27197 26.0704 7.9893 26.0917 7.80797C26.1131 7.62663 26.1077 7.50397 26.0757 7.43997C26.0437 7.37597 25.9691 7.35463 25.8517 7.37597C25.4464 7.40797 25.1637 7.4613 25.0037 7.53597C24.9291 7.5893 24.7211 7.59997 24.3797 7.56797C24.0384 7.53597 23.8091 7.48797 23.6917 7.42397C23.3717 7.26397 23.2277 7.02397 23.2597 6.70397C23.2811 6.44797 23.4091 6.3253 23.6437 6.33597C23.7077 6.3573 23.7664 6.37863 23.8197 6.39997C23.9264 6.4213 24.2997 6.41063 24.9397 6.36797C25.5797 6.31463 25.9531 6.2613 26.0597 6.20797C26.1131 6.17597 26.1504 6.1173 26.1717 6.03197C26.2037 5.94663 26.2251 5.7813 26.2357 5.53597C26.2357 5.2693 26.2571 5.0773 26.2997 4.95997C26.3957 4.67197 26.3851 4.41063 26.2677 4.17597C26.2251 4.05863 26.2197 3.9733 26.2517 3.91997C26.2944 3.86663 26.4011 3.7973 26.5717 3.71197Z" fill="white"/>
  <path d="M22.1553 6.75193C22.1553 6.71993 22.2726 6.5866 22.5073 6.35193C22.7526 6.1066 22.9126 5.98927 22.9873 5.99993C23.062 6.0106 23.1686 6.17593 23.3073 6.49593C23.4246 6.7626 23.4406 6.9866 23.3553 7.16793C23.2806 7.34927 23.062 7.59993 22.6993 7.91993C21.9633 8.5386 21.494 9.12527 21.2913 9.67993C21.238 9.83993 21.1793 9.93593 21.1153 9.96793C21.0193 10.0319 20.7206 10.3146 20.2193 10.8159C19.974 11.0506 19.7926 11.2959 19.6753 11.5519C19.6326 11.6693 19.542 11.7439 19.4033 11.7759C19.318 11.7973 19.238 11.8239 19.1633 11.8559C19.1313 11.8666 19.0726 11.9573 18.9873 12.1279C18.9126 12.2879 18.7153 12.5279 18.3953 12.8479C18.0966 13.1573 17.91 13.3599 17.8353 13.4559C17.7926 13.5413 17.6966 13.6693 17.5473 13.8399C17.4086 13.9999 17.286 14.1706 17.1793 14.3519C17.0833 14.5226 16.95 14.6986 16.7793 14.8799C16.3206 15.3919 16.0113 15.7866 15.8513 16.0639C15.702 16.2986 15.59 16.4586 15.5153 16.5439C15.4406 16.6506 15.3766 16.7786 15.3233 16.9279C15.27 17.0773 15.19 17.1893 15.0833 17.2639C14.9553 17.3493 14.8486 17.4506 14.7633 17.5679C14.582 17.8239 14.358 17.8453 14.0913 17.6319C14.038 17.5786 13.9526 17.4346 13.8353 17.1999C13.7286 16.9653 13.6753 16.8213 13.6753 16.7679C13.6753 16.7146 13.7553 16.6026 13.9153 16.4319C14.0753 16.2719 14.198 16.1866 14.2833 16.1759C14.454 16.1226 14.614 15.9679 14.7633 15.7119C14.838 15.5946 14.966 15.4506 15.1473 15.2799C15.3393 15.0986 15.494 14.9333 15.6113 14.7839C15.942 14.3359 16.1446 14.0906 16.2193 14.0479C16.294 13.9946 16.3846 13.8879 16.4913 13.7279C16.6833 13.4506 16.966 13.0933 17.3393 12.6559C17.7233 12.2186 18.006 11.9199 18.1873 11.7599C18.646 11.3866 18.6353 11.0346 18.1553 10.7039C18.0166 10.6186 17.8353 10.4533 17.6113 10.2079C17.3873 9.9626 17.238 9.78127 17.1633 9.66393C17.0886 9.5466 16.9606 9.4186 16.7793 9.27993C16.5766 9.1306 16.3473 8.93327 16.0913 8.68793C15.8353 8.43193 15.6433 8.2666 15.5153 8.19193C15.3873 8.1066 15.286 8.03193 15.2113 7.96793C15.1366 7.89327 15.03 7.83993 14.8913 7.80793C14.6353 7.73327 14.4753 7.61593 14.4113 7.45593C14.4006 7.4026 14.3473 7.2906 14.2513 7.11993C14.0806 6.8426 14.07 6.57593 14.2193 6.31993C14.326 6.11727 14.4593 6.08527 14.6193 6.22393C14.7046 6.28793 14.7953 6.30393 14.8913 6.27193C14.966 6.26127 15.0353 6.2826 15.0993 6.33593C15.174 6.38927 15.3446 6.56527 15.6113 6.86393C15.9953 7.27993 16.2833 7.55727 16.4753 7.69593C16.6353 7.81327 16.8593 8.0106 17.1473 8.28793C17.446 8.56527 17.6646 8.78393 17.8033 8.94393C17.91 9.0826 18.0646 9.22127 18.2673 9.35993C18.4593 9.50927 18.6033 9.65327 18.6993 9.79193C18.902 10.0586 19.0886 10.1706 19.2593 10.1279C19.366 10.0959 19.5313 9.9626 19.7553 9.72793C19.99 9.4826 20.15 9.27993 20.2353 9.11993C20.31 8.94927 20.406 8.79993 20.5233 8.67193C20.6193 8.5546 20.7046 8.43727 20.7793 8.31993C20.8326 8.19193 20.9073 8.1066 21.0033 8.06393C21.0993 8.0106 21.2166 7.88793 21.3553 7.69593C21.5046 7.49327 21.6646 7.3226 21.8353 7.18393C22.0486 7.02393 22.1553 6.87993 22.1553 6.75193Z" fill="white"/>
  <path d="M0.770286 2.08C0.823619 2.02667 0.855619 2 0.866286 2C0.887619 2 0.978286 2.02667 1.13829 2.08C1.33029 2.12267 1.52762 2.21867 1.73029 2.368C1.90095 2.496 2.01295 2.60267 2.06629 2.688C2.11962 2.76267 2.17295 2.94933 2.22629 3.248C2.27962 3.51467 2.31695 3.664 2.33829 3.696C2.35962 3.728 2.39162 3.80267 2.43429 3.92C2.46629 4.03733 2.56229 4.18133 2.72229 4.352C2.88229 4.544 2.96229 4.656 2.96229 4.688C2.96229 4.70933 2.99962 4.76267 3.07429 4.848C3.15962 4.95467 3.21829 5.06667 3.25029 5.184C3.31429 5.51467 3.62362 5.99467 4.17829 6.624C4.56229 7.02933 4.84495 7.41867 5.02629 7.792C5.07962 7.90933 5.21829 7.952 5.44229 7.92C5.67695 7.888 5.89029 7.79733 6.08229 7.648C6.21029 7.54133 6.33829 7.45067 6.46629 7.376C6.57295 7.30133 6.73829 7.152 6.96229 6.928C7.15429 6.72533 7.33562 6.56 7.50629 6.432C7.66629 6.304 7.74629 6.21867 7.74629 6.176C7.74629 6.12267 8.00762 5.936 8.53029 5.616C8.75429 5.46667 8.97295 5.28 9.18629 5.056C9.70895 4.53333 10.061 4.25067 10.2423 4.208C10.381 4.16533 10.4716 4.11733 10.5143 4.064C10.557 4 10.5676 3.904 10.5463 3.776C10.5356 3.66933 10.5463 3.52533 10.5783 3.344C10.621 3.152 10.6583 3.024 10.6903 2.96C10.7223 2.928 10.9943 2.912 11.5063 2.912H12.2743L12.5143 3.12C12.6743 3.26933 12.7436 3.40267 12.7223 3.52C12.669 3.86133 12.461 4.15467 12.0983 4.4C11.9916 4.47467 11.9276 4.58133 11.9063 4.72C11.885 4.848 11.869 5.136 11.8583 5.584C11.8476 6.13867 11.821 6.47467 11.7783 6.592C11.7356 6.752 11.7623 6.97067 11.8583 7.248C11.901 7.38667 11.917 7.52 11.9063 7.648C11.885 7.808 11.869 8.032 11.8583 8.32C11.8583 8.608 11.869 8.784 11.8903 8.848C11.9223 8.976 11.9863 9.776 12.0823 11.248C12.1036 11.6747 12.109 11.9413 12.0983 12.048C12.0983 12.144 12.0716 12.2293 12.0183 12.304C11.9543 12.4213 11.9383 12.5227 11.9703 12.608C11.981 12.6933 11.9596 12.8053 11.9063 12.944C11.8423 13.0933 11.8263 13.216 11.8583 13.312C11.8903 13.5253 11.7996 13.6533 11.5863 13.696C11.3836 13.7493 11.2236 13.68 11.1063 13.488C10.9783 13.2853 10.9036 13.104 10.8823 12.944C10.8716 12.7947 10.8556 12.288 10.8343 11.424C10.8343 10.3573 10.8236 9.56267 10.8023 9.04C10.781 8.47467 10.765 8.048 10.7543 7.76C10.7543 7.48267 10.733 7.22133 10.6903 6.976C10.669 6.76267 10.6903 6.608 10.7543 6.512C10.7863 6.43733 10.813 6.25067 10.8343 5.952C10.8663 5.64267 10.8663 5.42933 10.8343 5.312C10.813 5.22667 10.7383 5.184 10.6103 5.184C10.4823 5.17333 10.333 5.21067 10.1623 5.296C9.99162 5.37067 9.83162 5.47733 9.68229 5.616C9.21295 6.064 8.85029 6.39467 8.59429 6.608C8.41295 6.736 8.25295 6.87467 8.11429 7.024C7.95429 7.184 7.82095 7.296 7.71429 7.36C7.60762 7.40267 7.51162 7.504 7.42629 7.664C7.35162 7.824 7.25562 7.92 7.13829 7.952C7.02095 7.984 6.92495 8.12267 6.85029 8.368C6.79695 8.528 6.64762 8.656 6.40229 8.752C6.15695 8.848 5.86362 8.896 5.52229 8.896C5.11695 8.896 4.85029 8.86933 4.72229 8.816C4.60495 8.752 4.45562 8.56533 4.27429 8.256C4.13562 8.04267 3.99162 7.83467 3.84229 7.632C3.71429 7.48267 3.61829 7.35467 3.55429 7.248C3.50095 7.152 3.42095 7.04 3.31429 6.912C3.20762 6.79467 3.12229 6.66133 3.05829 6.512C2.98362 6.352 2.87162 6.18667 2.72229 6.016C2.58362 5.84533 2.47695 5.70667 2.40229 5.6C2.33829 5.48267 2.26362 5.38667 2.17829 5.312C2.09295 5.22667 2.01829 5.088 1.95429 4.896C1.89029 4.69333 1.81029 4.53867 1.71429 4.432L1.58629 4.272L1.45829 4.416C1.37295 4.512 1.32495 4.59733 1.31429 4.672C1.28229 4.768 1.25029 4.89067 1.21829 5.04C1.11162 5.38133 1.05295 6.36267 1.04229 7.984C1.04229 9.59467 1.09029 10.88 1.18629 11.84C1.19695 11.8933 1.21295 12.0427 1.23429 12.288C1.25562 12.544 1.27695 12.7307 1.29829 12.848C1.33029 13.1893 1.33029 13.3973 1.29829 13.472C1.27695 13.5573 1.19162 13.6213 1.04229 13.664C0.828952 13.728 0.679619 13.7333 0.594286 13.68C0.519619 13.6373 0.407619 13.472 0.258286 13.184C0.108952 12.928 0.0236191 12.7627 0.00228569 12.688C-0.00838092 12.6133 0.0182858 12.5333 0.0822857 12.448C0.124952 12.384 0.135619 12.256 0.114286 12.064C0.0929524 11.8507 0.0822857 10.9493 0.0822857 9.36C0.0929524 7.77067 0.108952 6.80533 0.130286 6.464C0.204952 5.51467 0.274286 4.96533 0.338286 4.816C0.402286 4.688 0.455619 4.528 0.498286 4.336C0.540953 4.208 0.588953 4.02133 0.642286 3.776C0.716953 3.53067 0.690286 3.32267 0.562286 3.152C0.508952 3.07733 0.508952 2.90133 0.562286 2.624C0.615619 2.34667 0.684952 2.16533 0.770286 2.08Z" fill="white"/>
</svg>