<svg width="64" height="64" viewBox="0 0 64 64" fill="none" xmlns="http://www.w3.org/2000/svg">
<rect width="64" height="64" rx="12.8" fill="black"/>
<path d="M41.8905 15.1784C41.4958 16.1204 41.0623 17.2237 40.6574 18.4234C39.4353 22.045 38.4158 26.6073 39.3701 30.1688C40.3244 33.7302 43.4884 37.1716 46.3577 39.6969C47.3079 40.5331 48.2345 41.2718 49.0471 41.8901C48.1053 41.4955 47.0023 41.0624 45.803 40.6576C42.1814 39.4354 37.6191 38.416 34.0576 39.3703C30.4962 40.3246 27.0548 43.4886 24.5295 46.3578C23.6932 47.308 22.9546 48.2347 22.3363 49.0473C22.7308 48.1055 23.164 47.0025 23.5688 45.8031C24.791 42.1815 25.8104 37.6192 24.8561 34.0578C23.9018 30.4963 20.7378 27.055 17.8686 24.5297C16.9181 23.6931 15.991 22.9544 15.1783 22.3359C16.1202 22.7306 17.2235 23.164 18.4233 23.5689C22.0449 24.7911 26.6072 25.8105 30.1686 24.8563C33.73 23.902 37.1714 20.738 39.6967 17.8687C40.5333 16.9182 41.272 15.9912 41.8905 15.1784Z" stroke="#FEFFFE" stroke-width="0.64"/>
<path d="M32.6399 12.4453C32.7691 13.4584 32.9454 14.6306 33.1946 15.8721C33.9469 19.6196 35.3452 24.0804 37.9524 26.6875C40.5596 29.2947 45.0203 30.693 48.7678 31.4453C50.0089 31.6945 51.1807 31.8708 52.1936 32C51.1807 32.1292 50.0089 32.3056 48.7678 32.5547C45.0203 33.3071 40.5596 34.7054 37.9524 37.3125C35.3452 39.9197 33.9469 44.3805 33.1946 48.128C32.9454 49.369 32.7691 50.5408 32.6399 51.5537C32.5107 50.5408 32.3343 49.369 32.0852 48.128C31.3328 44.3805 29.9345 39.9197 27.3274 37.3125C24.7202 34.7054 20.2595 33.3071 16.512 32.5547C15.2705 32.3055 14.0983 32.1292 13.0852 32C14.0983 31.8708 15.2705 31.6946 16.512 31.4453C20.2595 30.693 24.7202 29.2947 27.3274 26.6875C29.9346 24.0804 31.3328 19.6196 32.0852 15.8721C32.3344 14.6306 32.5107 13.4584 32.6399 12.4453Z" stroke="#FC4A3A" stroke-width="0.64"/>
</svg>
